<svg width="18" height="19" viewBox="0 0 18 19" fill="none" xmlns="http://www.w3.org/2000/svg">
<g clip-path="url(#clip0_754_7)" filter="url(#filter0_i_754_7)">
<rect width="18" height="19" fill="#4169E1"/>
<path d="M12.3748 3.49399C12.3748 1.56429 10.8638 0 8.99982 0C7.13588 0 5.62489 1.56429 5.62489 3.49399C5.62489 5.42369 7.13588 6.98798 8.99982 6.98798C10.8638 6.98798 12.3748 5.42369 12.3748 3.49399ZM8.21199 8.77501C6.12621 7.45312 2.74776 7.08989 1.04764 6.9898C0.476358 6.95632 0 7.4069 0 7.97576V16.0847C0 16.6063 0.407453 17.0412 0.931271 17.0692C2.46616 17.1526 5.57145 17.4579 7.7177 18.5771C8.04711 18.7489 8.43769 18.5149 8.43769 18.1451V9.19211C8.43734 9.02214 8.35613 8.86636 8.21199 8.77501ZM16.952 6.9898C15.2522 7.08952 11.8734 7.45312 9.78801 8.77501C9.64387 8.86636 9.56267 9.02833 9.56267 9.19829V18.144C9.56267 18.5149 9.9543 18.7493 10.2848 18.5771C12.4307 17.459 15.5342 17.1537 17.0687 17.0703C17.5925 17.0419 18 16.607 18 16.0855V7.97576C17.9996 7.4069 17.5233 6.95632 16.952 6.9898Z" fill="white"/>
</g>
<defs>
<filter id="filter0_i_754_7" x="0" y="0" width="18" height="23" filterUnits="userSpaceOnUse" color-interpolation-filters="sRGB">
<feFlood flood-opacity="0" result="BackgroundImageFix"/>
<feBlend mode="normal" in="SourceGraphic" in2="BackgroundImageFix" result="shape"/>
<feColorMatrix in="SourceAlpha" type="matrix" values="0 0 0 0 0 0 0 0 0 0 0 0 0 0 0 0 0 0 127 0" result="hardAlpha"/>
<feOffset dy="4"/>
<feGaussianBlur stdDeviation="2"/>
<feComposite in2="hardAlpha" operator="arithmetic" k2="-1" k3="1"/>
<feColorMatrix type="matrix" values="0 0 0 0 0 0 0 0 0 0 0 0 0 0 0 0 0 0 0.25 0"/>
<feBlend mode="normal" in2="shape" result="effect1_innerShadow_754_7"/>
</filter>
<clipPath id="clip0_754_7">
<rect width="18" height="19" fill="white"/>
</clipPath>
</defs>
</svg>
