<svg width="49" height="42" viewBox="0 0 49 42" fill="none" xmlns="http://www.w3.org/2000/svg">
<path d="M24.5 0C19.6544 0 14.9175 1.23163 10.8885 3.53914C6.85953 5.84665 3.71931 9.1264 1.86496 12.9636C0.0106155 16.8009 -0.474566 21.0233 0.470772 25.0969C1.41611 29.1705 3.74951 32.9123 7.17589 35.8492C10.6023 38.7861 14.9678 40.7862 19.7203 41.5965C24.4728 42.4068 29.399 41.9909 33.8757 40.4015C38.3525 38.812 42.1789 36.1204 44.871 32.667C47.5631 29.2135 49 25.1534 49 21C49 15.4304 46.4188 10.089 41.8241 6.15076C37.2295 2.21249 30.9978 0 24.5 0ZM24.5 37.1538C21.4452 37.1536 18.4363 36.5168 15.7324 35.2984C13.0285 34.08 10.7106 32.3165 8.97845 30.1597C7.24629 28.0029 6.15175 25.5176 5.7891 22.9177C5.42645 20.3178 5.80655 17.6814 6.89668 15.2354C7.98681 12.7894 9.75427 10.6072 12.0469 8.87673C14.3394 7.14628 17.0884 5.91944 20.057 5.30188C23.0256 4.68432 26.1249 4.69455 29.0879 5.33169C32.0508 5.96883 34.7887 7.21379 37.0657 8.95933C37.4289 9.24709 37.6457 9.64573 37.6691 10.0692C37.6925 10.4927 37.5207 10.9071 37.1908 11.2231C36.8609 11.539 36.3993 11.731 35.9056 11.7578C35.412 11.7846 34.9258 11.644 34.5521 11.3662C32.0395 9.43992 28.8462 8.29093 25.4823 8.10281C22.1184 7.91469 18.778 8.6983 15.9947 10.3285C13.2114 11.9586 11.1457 14.3413 10.1277 17.0958C9.10968 19.8504 9.19803 22.8179 10.3786 25.5244C11.5592 28.2309 13.764 30.5201 16.6407 32.0265C19.5174 33.5328 22.9001 34.1694 26.2484 33.8344C29.5967 33.4995 32.7175 32.2124 35.1122 30.1787C37.5069 28.145 39.0374 25.4821 39.4591 22.6154H24.5C24.0002 22.6154 23.5208 22.4452 23.1674 22.1422C22.8139 21.8393 22.6154 21.4284 22.6154 21C22.6154 20.5716 22.8139 20.1607 23.1674 19.8577C23.5208 19.5548 24.0002 19.3846 24.5 19.3846H41.4615C41.9614 19.3846 42.4407 19.5548 42.7942 19.8577C43.1476 20.1607 43.3462 20.5716 43.3462 21C43.3405 25.2828 41.3532 29.3888 37.82 32.4172C34.2869 35.4456 29.4966 37.149 24.5 37.1538Z" fill="#7879F1"/>
</svg>
