<svg width="49" height="47" viewBox="0 0 49 47" fill="none" xmlns="http://www.w3.org/2000/svg">
<path d="M24.5 26.4375C32.1084 26.4375 38.2812 20.5166 38.2812 13.2188C38.2812 5.9209 32.1084 0 24.5 0C16.8916 0 10.7188 5.9209 10.7188 13.2188C10.7188 20.5166 16.8916 26.4375 24.5 26.4375ZM36.75 29.375H31.4768C29.3521 30.3113 26.9883 30.8438 24.5 30.8438C22.0117 30.8438 19.6574 30.3113 17.5232 29.375H12.25C5.48379 29.375 0 34.635 0 41.125V42.5938C0 45.0264 2.05762 47 4.59375 47H44.4062C46.9424 47 49 45.0264 49 42.5938V41.125C49 34.635 43.5162 29.375 36.75 29.375Z" fill="white"/>
</svg>
